# xmcd
#
# Track frame offsets:
#	150
#	19280
#	35399
#	50119
#	66664
#
# Disc length: 1162 seconds
#
# Revision: 0
# Processed by: cddbd v1.5.2PL0 Copyright (c) Steve Scherf et al.
# Submitted via: dBpowerAMP V4.0
#
DISCID=48048805
DTITLE=Pimento - Pello @ SoWatt
DYEAR=1900
DGENRE=
TTITLE0=light will come
TTITLE1=the change
TTITLE2=I won't cry
TTITLE3=little wing
TTITLE4=supersticious
EXTD=
EXTT0=
EXTT1=
EXTT2=
EXTT3=
EXTT4=
PLAYORDER=
